<?xml version="1.0" encoding="iso-8859-1"?>
<!-- Uploaded to: SVG Repo, www.svgrepo.com, Generator: SVG Repo Mixer Tools -->
<!DOCTYPE svg PUBLIC "-//W3C//DTD SVG 1.1//EN" "http://www.w3.org/Graphics/SVG/1.1/DTD/svg11.dtd">
<svg fill="#000000" version="1.1" id="Capa_1" xmlns="http://www.w3.org/2000/svg" xmlns:xlink="http://www.w3.org/1999/xlink" 
	 width="800px" height="800px" viewBox="0 0 553.289 553.289"
	 xml:space="preserve">
<g>
	<path d="M293.522,2.039c165.24-15.3,279.072,178.092,257.04,325.583C528.53,472.666,379.202,570.587,237.83,549.167
		C88.502,527.135-16.762,385.763,2.21,237.659C20.57,96.899,144.806-14.485,286.179,6.323
		C288.015,3.875,289.851,2.039,293.522,2.039z M444.687,333.742c8.568-97.307-39.168-230.111-150.552-239.903
		c-2.448,0-4.284-1.224-5.509-1.836c-5.508-0.612-11.016-1.224-15.912-1.836c-43.452,5.508-82.62,16.524-113.832,51.408
		c-29.988,32.436-48.348,81.396-51.408,124.848c-6.12,85.68,39.78,168.3,121.176,198.899
		C326.57,502.654,434.895,439.618,444.687,333.742z"/>
</g>
</svg>