<?xml version="1.0" encoding="utf-8"?><!-- Uploaded to: SVG Repo, www.svgrepo.com, Generator: SVG Repo Mixer Tools -->
<svg fill="#000000" width="800px" height="800px" viewBox="0 0 16 16" xmlns="http://www.w3.org/2000/svg"><path d="M8 .5C3.58.5 0 3.86 0 8s3.58 7.5 8 7.5c4.69 0 1.04-2.83 2.79-4.55.76-.75 1.63-.87 2.44-.87.37 0 .73.03 1.06.03.99 0 1.72-.23 1.72-2.1C16 3.86 12.42.5 8 .5zm6.65 8.32c-.05.01-.16.02-.37.02-.14 0-.29 0-.45-.01-.19 0-.39-.01-.61-.01-.89 0-2.19.13-3.32 1.23-1.17 1.16-.9 2.6-.74 3.47.03.18.08.44.09.6-.16.05-.52.13-1.26.13-3.72 0-6.75-2.8-6.75-6.25S4.28 1.75 8 1.75s6.75 2.8 6.75 6.25c0 .5-.06.74-.1.82z"/><path d="M5.9 9.47c-1.03 0-1.86.8-1.86 1.79s.84 1.79 1.86 1.79 1.86-.8 1.86-1.79-.84-1.79-1.86-1.79zm0 2.35c-.35 0-.64-.25-.64-.56s.29-.56.64-.56.64.25.64.56-.29.56-.64.56zm-.2-4.59c0-.99-.84-1.79-1.86-1.79s-1.86.8-1.86 1.79.84 1.79 1.86 1.79 1.86-.8 1.86-1.79zm-1.86.56c-.35 0-.64-.25-.64-.56s.29-.56.64-.56.64.25.64.56-.29.56-.64.56zM7.37 2.5c-1.03 0-1.86.8-1.86 1.79s.84 1.79 1.86 1.79 1.86-.8 1.86-1.79S8.39 2.5 7.37 2.5zm0 2.35c-.35 0-.64-.25-.64-.56s.29-.56.64-.56.64.25.64.56-.29.56-.64.56zm2.47 1.31c0 .99.84 1.79 1.86 1.79s1.86-.8 1.86-1.79-.84-1.79-1.86-1.79-1.86.8-1.86 1.79zm2.5 0c0 .31-.29.56-.64.56s-.64-.25-.64-.56.29-.56.64-.56.64.25.64.56z"/></svg>